<?xml version="1.0" encoding="utf-8" standalone="no"?>
<!DOCTYPE svg PUBLIC "-//W3C//DTD SVG 1.1//EN"
  "http://www.w3.org/Graphics/SVG/1.1/DTD/svg11.dtd">
<svg xmlns:xlink="http://www.w3.org/1999/xlink" width="1000.285993pt" height="567.905375pt" viewBox="0 0 1000.285993 567.905375" xmlns="http://www.w3.org/2000/svg" version="1.1">
 <metadata>
  <rdf:RDF xmlns:dc="http://purl.org/dc/elements/1.1/" xmlns:cc="http://creativecommons.org/ns#" xmlns:rdf="http://www.w3.org/1999/02/22-rdf-syntax-ns#">
   <cc:Work>
    <dc:type rdf:resource="http://purl.org/dc/dcmitype/StillImage"/>
    <dc:date>2025-11-16T17:10:15.255875</dc:date>
    <dc:format>image/svg+xml</dc:format>
    <dc:creator>
     <cc:Agent>
      <dc:title>Matplotlib v3.10.7, https://matplotlib.org/</dc:title>
     </cc:Agent>
    </dc:creator>
   </cc:Work>
  </rdf:RDF>
 </metadata>
 <defs>
  <style type="text/css">*{stroke-linejoin: round; stroke-linecap: butt}</style>
 </defs>
 <g id="figure_1">
  <g id="patch_1">
   <path d="M 0 567.905375 
L 1000.285993 567.905375 
L 1000.285993 0 
L 0 0 
z
" style="fill: #ffffff"/>
  </g>
  <g id="axes_1">
   <g id="patch_2">
    <path d="M 45.52375 527.344125 
L 985.064273 527.344125 
L 985.064273 39.624125 
L 45.52375 39.624125 
z
" style="fill: #ffffff"/>
   </g>
   <g id="PathCollection_1">
    <defs>
     <path id="C0_0_07af63a3ab" d="M 0 5 
C 1.326016 5 2.597899 4.473168 3.535534 3.535534 
C 4.473168 2.597899 5 1.326016 5 -0 
C 5 -1.326016 4.473168 -2.597899 3.535534 -3.535534 
C 2.597899 -4.473168 1.326016 -5 0 -5 
C -1.326016 -5 -2.597899 -4.473168 -3.535534 -3.535534 
C -4.473168 -2.597899 -5 -1.326016 -5 0 
C -5 1.326016 -4.473168 2.597899 -3.535534 3.535534 
C -2.597899 4.473168 -1.326016 5 0 5 
z
"/>
    </defs>
    <g clip-path="url(#p590f17849a)">
     <use xlink:href="#C0_0_07af63a3ab" x="803.584509" y="357.5193" style="fill: #1f77b4; fill-opacity: 0.6; stroke: #000000; stroke-opacity: 0.6; stroke-width: 0.8"/>
    </g>
    <g clip-path="url(#p590f17849a)">
     <use xlink:href="#C0_0_07af63a3ab" x="902.068841" y="356.112125" style="fill: #1f77b4; fill-opacity: 0.6; stroke: #000000; stroke-opacity: 0.6; stroke-width: 0.8"/>
    </g>
   </g>
   <g id="FillBetweenPolyCollection_1">
    <defs>
     <path id="m46d6101b18" d="M 88.230137 -506.112159 
L 88.230137 -339.529733 
L 96.85769 -336.733779 
L 105.485243 -333.937826 
L 114.112796 -331.141872 
L 122.740349 -328.345919 
L 131.367902 -325.549965 
L 139.995455 -322.754012 
L 148.623009 -319.958058 
L 157.250562 -317.162105 
L 165.878115 -314.366151 
L 174.505668 -311.570198 
L 183.133221 -308.774245 
L 191.760774 -305.978291 
L 200.388327 -303.182338 
L 209.01588 -300.386384 
L 217.643433 -297.590431 
L 226.270986 -294.794477 
L 234.898539 -291.998524 
L 243.526092 -289.20257 
L 252.153645 -286.406617 
L 260.781198 -283.610664 
L 269.408751 -280.81471 
L 278.036304 -278.018757 
L 286.663857 -275.222803 
L 295.29141 -272.42685 
L 303.918963 -269.630896 
L 312.546516 -266.834943 
L 321.174069 -264.038989 
L 329.801622 -261.243036 
L 338.429175 -258.447082 
L 347.056728 -255.651129 
L 355.684281 -252.855176 
L 364.311834 -250.059222 
L 372.939387 -247.263269 
L 381.56694 -244.467315 
L 390.194493 -241.671362 
L 398.822046 -238.875408 
L 407.449599 -236.079455 
L 416.077152 -233.283501 
L 424.704705 -230.487548 
L 433.332258 -227.691595 
L 441.959811 -224.895641 
L 450.587364 -222.099688 
L 459.214917 -219.303734 
L 467.84247 -216.507781 
L 476.470023 -213.711827 
L 485.097576 -210.915874 
L 493.725129 -208.11992 
L 502.352682 -205.323967 
L 510.980235 -202.528013 
L 519.607788 -199.73206 
L 528.235341 -196.936107 
L 536.862894 -194.140153 
L 545.490447 -191.3442 
L 554.118 -188.548246 
L 562.745553 -185.752293 
L 571.373106 -182.956339 
L 580.000659 -180.160386 
L 588.628212 -177.364432 
L 597.255765 -174.568479 
L 605.883318 -171.772525 
L 614.510871 -168.976572 
L 623.138424 -166.180619 
L 631.765977 -163.384665 
L 640.39353 -160.588712 
L 649.021083 -157.792758 
L 657.648636 -154.996805 
L 666.276189 -152.200851 
L 674.903742 -149.404898 
L 683.531295 -146.608944 
L 692.158848 -143.812991 
L 700.786401 -141.017038 
L 709.413954 -138.221084 
L 718.041507 -135.425131 
L 726.66906 -132.629177 
L 735.296613 -129.833224 
L 743.924166 -127.03727 
L 752.551719 -124.241317 
L 761.179272 -121.445363 
L 769.806825 -118.64941 
L 778.434378 -115.853456 
L 787.061931 -113.057503 
L 795.689485 -110.26155 
L 804.317038 -107.465596 
L 812.944591 -104.669643 
L 821.572144 -101.873689 
L 830.199697 -99.077736 
L 838.82725 -96.281782 
L 847.454803 -93.485829 
L 856.082356 -90.689875 
L 864.709909 -87.893922 
L 873.337462 -85.097969 
L 881.965015 -82.302015 
L 890.592568 -79.506062 
L 899.220121 -76.710108 
L 907.847674 -73.914155 
L 916.475227 -71.118201 
L 925.10278 -68.322248 
L 933.730333 -65.526294 
L 942.357886 -62.730341 
L 942.357886 -229.312767 
L 942.357886 -229.312767 
L 933.730333 -232.108721 
L 925.10278 -234.904674 
L 916.475227 -237.700628 
L 907.847674 -240.496581 
L 899.220121 -243.292535 
L 890.592568 -246.088488 
L 881.965015 -248.884442 
L 873.337462 -251.680395 
L 864.709909 -254.476349 
L 856.082356 -257.272302 
L 847.454803 -260.068255 
L 838.82725 -262.864209 
L 830.199697 -265.660162 
L 821.572144 -268.456116 
L 812.944591 -271.252069 
L 804.317038 -274.048023 
L 795.689485 -276.843976 
L 787.061931 -279.63993 
L 778.434378 -282.435883 
L 769.806825 -285.231836 
L 761.179272 -288.02779 
L 752.551719 -290.823743 
L 743.924166 -293.619697 
L 735.296613 -296.41565 
L 726.66906 -299.211604 
L 718.041507 -302.007557 
L 709.413954 -304.803511 
L 700.786401 -307.599464 
L 692.158848 -310.395418 
L 683.531295 -313.191371 
L 674.903742 -315.987324 
L 666.276189 -318.783278 
L 657.648636 -321.579231 
L 649.021083 -324.375185 
L 640.39353 -327.171138 
L 631.765977 -329.967092 
L 623.138424 -332.763045 
L 614.510871 -335.558999 
L 605.883318 -338.354952 
L 597.255765 -341.150905 
L 588.628212 -343.946859 
L 580.000659 -346.742812 
L 571.373106 -349.538766 
L 562.745553 -352.334719 
L 554.118 -355.130673 
L 545.490447 -357.926626 
L 536.862894 -360.72258 
L 528.235341 -363.518533 
L 519.607788 -366.314487 
L 510.980235 -369.11044 
L 502.352682 -371.906393 
L 493.725129 -374.702347 
L 485.097576 -377.4983 
L 476.470023 -380.294254 
L 467.84247 -383.090207 
L 459.214917 -385.886161 
L 450.587364 -388.682114 
L 441.959811 -391.478068 
L 433.332258 -394.274021 
L 424.704705 -397.069975 
L 416.077152 -399.865928 
L 407.449599 -402.661881 
L 398.822046 -405.457835 
L 390.194493 -408.253788 
L 381.56694 -411.049742 
L 372.939387 -413.845695 
L 364.311834 -416.641649 
L 355.684281 -419.437602 
L 347.056728 -422.233556 
L 338.429175 -425.029509 
L 329.801622 -427.825462 
L 321.174069 -430.621416 
L 312.546516 -433.417369 
L 303.918963 -436.213323 
L 295.29141 -439.009276 
L 286.663857 -441.80523 
L 278.036304 -444.601183 
L 269.408751 -447.397137 
L 260.781198 -450.19309 
L 252.153645 -452.989044 
L 243.526092 -455.784997 
L 234.898539 -458.58095 
L 226.270986 -461.376904 
L 217.643433 -464.172857 
L 209.01588 -466.968811 
L 200.388327 -469.764764 
L 191.760774 -472.560718 
L 183.133221 -475.356671 
L 174.505668 -478.152625 
L 165.878115 -480.948578 
L 157.250562 -483.744531 
L 148.623009 -486.540485 
L 139.995455 -489.336438 
L 131.367902 -492.132392 
L 122.740349 -494.928345 
L 114.112796 -497.724299 
L 105.485243 -500.520252 
L 96.85769 -503.316206 
L 88.230137 -506.112159 
z
" style="stroke: #ff0000; stroke-opacity: 0.2"/>
    </defs>
    <g clip-path="url(#p590f17849a)">
     <use xlink:href="#m46d6101b18" x="0" y="567.905375" style="fill: #ff0000; fill-opacity: 0.2; stroke: #ff0000; stroke-opacity: 0.2"/>
    </g>
   </g>
   <g id="matplotlib.axis_1">
    <g id="xtick_1">
     <g id="line2d_1">
      <path d="M 88.230137 527.344125 
L 88.230137 39.624125 
" clip-path="url(#p590f17849a)" style="fill: none; stroke: #b0b0b0; stroke-opacity: 0.3; stroke-width: 0.8; stroke-linecap: square"/>
     </g>
     <g id="line2d_2">
      <defs>
       <path id="m01aba33a90" d="M 0 0 
L 0 3.5 
" style="stroke: #000000; stroke-width: 0.8"/>
      </defs>
      <g>
       <use xlink:href="#m01aba33a90" x="88.230137" y="527.344125" style="stroke: #000000; stroke-width: 0.8"/>
      </g>
     </g>
     <g id="text_1">
      <!-- 0 -->
      <g transform="translate(85.048887 541.942562) scale(0.1 -0.1)">
       <defs>
        <path id="DejaVuSans-30" d="M 2034 4250 
Q 1547 4250 1301 3770 
Q 1056 3291 1056 2328 
Q 1056 1369 1301 889 
Q 1547 409 2034 409 
Q 2525 409 2770 889 
Q 3016 1369 3016 2328 
Q 3016 3291 2770 3770 
Q 2525 4250 2034 4250 
z
M 2034 4750 
Q 2819 4750 3233 4129 
Q 3647 3509 3647 2328 
Q 3647 1150 3233 529 
Q 2819 -91 2034 -91 
Q 1250 -91 836 529 
Q 422 1150 422 2328 
Q 422 3509 836 4129 
Q 1250 4750 2034 4750 
z
" transform="scale(0.015625)"/>
       </defs>
       <use xlink:href="#DejaVuSans-30"/>
      </g>
     </g>
    </g>
    <g id="xtick_2">
     <g id="line2d_3">
      <path d="M 267.292558 527.344125 
L 267.292558 39.624125 
" clip-path="url(#p590f17849a)" style="fill: none; stroke: #b0b0b0; stroke-opacity: 0.3; stroke-width: 0.8; stroke-linecap: square"/>
     </g>
     <g id="line2d_4">
      <g>
       <use xlink:href="#m01aba33a90" x="267.292558" y="527.344125" style="stroke: #000000; stroke-width: 0.8"/>
      </g>
     </g>
     <g id="text_2">
      <!-- 20 -->
      <g transform="translate(260.930058 541.942562) scale(0.1 -0.1)">
       <defs>
        <path id="DejaVuSans-32" d="M 1228 531 
L 3431 531 
L 3431 0 
L 469 0 
L 469 531 
Q 828 903 1448 1529 
Q 2069 2156 2228 2338 
Q 2531 2678 2651 2914 
Q 2772 3150 2772 3378 
Q 2772 3750 2511 3984 
Q 2250 4219 1831 4219 
Q 1534 4219 1204 4116 
Q 875 4013 500 3803 
L 500 4441 
Q 881 4594 1212 4672 
Q 1544 4750 1819 4750 
Q 2544 4750 2975 4387 
Q 3406 4025 3406 3419 
Q 3406 3131 3298 2873 
Q 3191 2616 2906 2266 
Q 2828 2175 2409 1742 
Q 1991 1309 1228 531 
z
" transform="scale(0.015625)"/>
       </defs>
       <use xlink:href="#DejaVuSans-32"/>
       <use xlink:href="#DejaVuSans-30" transform="translate(63.623047 0)"/>
      </g>
     </g>
    </g>
    <g id="xtick_3">
     <g id="line2d_5">
      <path d="M 446.354979 527.344125 
L 446.354979 39.624125 
" clip-path="url(#p590f17849a)" style="fill: none; stroke: #b0b0b0; stroke-opacity: 0.3; stroke-width: 0.8; stroke-linecap: square"/>
     </g>
     <g id="line2d_6">
      <g>
       <use xlink:href="#m01aba33a90" x="446.354979" y="527.344125" style="stroke: #000000; stroke-width: 0.8"/>
      </g>
     </g>
     <g id="text_3">
      <!-- 40 -->
      <g transform="translate(439.992479 541.942562) scale(0.1 -0.1)">
       <defs>
        <path id="DejaVuSans-34" d="M 2419 4116 
L 825 1625 
L 2419 1625 
L 2419 4116 
z
M 2253 4666 
L 3047 4666 
L 3047 1625 
L 3713 1625 
L 3713 1100 
L 3047 1100 
L 3047 0 
L 2419 0 
L 2419 1100 
L 313 1100 
L 313 1709 
L 2253 4666 
z
" transform="scale(0.015625)"/>
       </defs>
       <use xlink:href="#DejaVuSans-34"/>
       <use xlink:href="#DejaVuSans-30" transform="translate(63.623047 0)"/>
      </g>
     </g>
    </g>
    <g id="xtick_4">
     <g id="line2d_7">
      <path d="M 625.417401 527.344125 
L 625.417401 39.624125 
" clip-path="url(#p590f17849a)" style="fill: none; stroke: #b0b0b0; stroke-opacity: 0.3; stroke-width: 0.8; stroke-linecap: square"/>
     </g>
     <g id="line2d_8">
      <g>
       <use xlink:href="#m01aba33a90" x="625.417401" y="527.344125" style="stroke: #000000; stroke-width: 0.8"/>
      </g>
     </g>
     <g id="text_4">
      <!-- 60 -->
      <g transform="translate(619.054901 541.942562) scale(0.1 -0.1)">
       <defs>
        <path id="DejaVuSans-36" d="M 2113 2584 
Q 1688 2584 1439 2293 
Q 1191 2003 1191 1497 
Q 1191 994 1439 701 
Q 1688 409 2113 409 
Q 2538 409 2786 701 
Q 3034 994 3034 1497 
Q 3034 2003 2786 2293 
Q 2538 2584 2113 2584 
z
M 3366 4563 
L 3366 3988 
Q 3128 4100 2886 4159 
Q 2644 4219 2406 4219 
Q 1781 4219 1451 3797 
Q 1122 3375 1075 2522 
Q 1259 2794 1537 2939 
Q 1816 3084 2150 3084 
Q 2853 3084 3261 2657 
Q 3669 2231 3669 1497 
Q 3669 778 3244 343 
Q 2819 -91 2113 -91 
Q 1303 -91 875 529 
Q 447 1150 447 2328 
Q 447 3434 972 4092 
Q 1497 4750 2381 4750 
Q 2619 4750 2861 4703 
Q 3103 4656 3366 4563 
z
" transform="scale(0.015625)"/>
       </defs>
       <use xlink:href="#DejaVuSans-36"/>
       <use xlink:href="#DejaVuSans-30" transform="translate(63.623047 0)"/>
      </g>
     </g>
    </g>
    <g id="xtick_5">
     <g id="line2d_9">
      <path d="M 804.479822 527.344125 
L 804.479822 39.624125 
" clip-path="url(#p590f17849a)" style="fill: none; stroke: #b0b0b0; stroke-opacity: 0.3; stroke-width: 0.8; stroke-linecap: square"/>
     </g>
     <g id="line2d_10">
      <g>
       <use xlink:href="#m01aba33a90" x="804.479822" y="527.344125" style="stroke: #000000; stroke-width: 0.8"/>
      </g>
     </g>
     <g id="text_5">
      <!-- 80 -->
      <g transform="translate(798.117322 541.942562) scale(0.1 -0.1)">
       <defs>
        <path id="DejaVuSans-38" d="M 2034 2216 
Q 1584 2216 1326 1975 
Q 1069 1734 1069 1313 
Q 1069 891 1326 650 
Q 1584 409 2034 409 
Q 2484 409 2743 651 
Q 3003 894 3003 1313 
Q 3003 1734 2745 1975 
Q 2488 2216 2034 2216 
z
M 1403 2484 
Q 997 2584 770 2862 
Q 544 3141 544 3541 
Q 544 4100 942 4425 
Q 1341 4750 2034 4750 
Q 2731 4750 3128 4425 
Q 3525 4100 3525 3541 
Q 3525 3141 3298 2862 
Q 3072 2584 2669 2484 
Q 3125 2378 3379 2068 
Q 3634 1759 3634 1313 
Q 3634 634 3220 271 
Q 2806 -91 2034 -91 
Q 1263 -91 848 271 
Q 434 634 434 1313 
Q 434 1759 690 2068 
Q 947 2378 1403 2484 
z
M 1172 3481 
Q 1172 3119 1398 2916 
Q 1625 2713 2034 2713 
Q 2441 2713 2670 2916 
Q 2900 3119 2900 3481 
Q 2900 3844 2670 4047 
Q 2441 4250 2034 4250 
Q 1625 4250 1398 4047 
Q 1172 3844 1172 3481 
z
" transform="scale(0.015625)"/>
       </defs>
       <use xlink:href="#DejaVuSans-38"/>
       <use xlink:href="#DejaVuSans-30" transform="translate(63.623047 0)"/>
      </g>
     </g>
    </g>
    <g id="xtick_6">
     <g id="line2d_11">
      <path d="M 983.542243 527.344125 
L 983.542243 39.624125 
" clip-path="url(#p590f17849a)" style="fill: none; stroke: #b0b0b0; stroke-opacity: 0.3; stroke-width: 0.8; stroke-linecap: square"/>
     </g>
     <g id="line2d_12">
      <g>
       <use xlink:href="#m01aba33a90" x="983.542243" y="527.344125" style="stroke: #000000; stroke-width: 0.8"/>
      </g>
     </g>
     <g id="text_6">
      <!-- 100 -->
      <g transform="translate(973.998493 541.942562) scale(0.1 -0.1)">
       <defs>
        <path id="DejaVuSans-31" d="M 794 531 
L 1825 531 
L 1825 4091 
L 703 3866 
L 703 4441 
L 1819 4666 
L 2450 4666 
L 2450 531 
L 3481 531 
L 3481 0 
L 794 0 
L 794 531 
z
" transform="scale(0.015625)"/>
       </defs>
       <use xlink:href="#DejaVuSans-31"/>
       <use xlink:href="#DejaVuSans-30" transform="translate(63.623047 0)"/>
       <use xlink:href="#DejaVuSans-30" transform="translate(127.246094 0)"/>
      </g>
     </g>
    </g>
    <g id="text_7">
     <!-- Renewable energy consumption (%) -->
     <g transform="translate(383.084012 557.900219) scale(0.13 -0.13)">
      <defs>
       <path id="DejaVuSans-Bold-52" d="M 2297 2597 
Q 2675 2597 2839 2737 
Q 3003 2878 3003 3200 
Q 3003 3519 2839 3656 
Q 2675 3794 2297 3794 
L 1791 3794 
L 1791 2597 
L 2297 2597 
z
M 1791 1766 
L 1791 0 
L 588 0 
L 588 4666 
L 2425 4666 
Q 3347 4666 3776 4356 
Q 4206 4047 4206 3378 
Q 4206 2916 3982 2619 
Q 3759 2322 3309 2181 
Q 3556 2125 3751 1926 
Q 3947 1728 4147 1325 
L 4800 0 
L 3519 0 
L 2950 1159 
Q 2778 1509 2601 1637 
Q 2425 1766 2131 1766 
L 1791 1766 
z
" transform="scale(0.015625)"/>
       <path id="DejaVuSans-Bold-65" d="M 4031 1759 
L 4031 1441 
L 1416 1441 
Q 1456 1047 1700 850 
Q 1944 653 2381 653 
Q 2734 653 3104 758 
Q 3475 863 3866 1075 
L 3866 213 
Q 3469 63 3072 -14 
Q 2675 -91 2278 -91 
Q 1328 -91 801 392 
Q 275 875 275 1747 
Q 275 2603 792 3093 
Q 1309 3584 2216 3584 
Q 3041 3584 3536 3087 
Q 4031 2591 4031 1759 
z
M 2881 2131 
Q 2881 2450 2695 2645 
Q 2509 2841 2209 2841 
Q 1884 2841 1681 2658 
Q 1478 2475 1428 2131 
L 2881 2131 
z
" transform="scale(0.015625)"/>
       <path id="DejaVuSans-Bold-6e" d="M 4056 2131 
L 4056 0 
L 2931 0 
L 2931 347 
L 2931 1631 
Q 2931 2084 2911 2256 
Q 2891 2428 2841 2509 
Q 2775 2619 2662 2680 
Q 2550 2741 2406 2741 
Q 2056 2741 1856 2470 
Q 1656 2200 1656 1722 
L 1656 0 
L 538 0 
L 538 3500 
L 1656 3500 
L 1656 2988 
Q 1909 3294 2193 3439 
Q 2478 3584 2822 3584 
Q 3428 3584 3742 3212 
Q 4056 2841 4056 2131 
z
" transform="scale(0.015625)"/>
       <path id="DejaVuSans-Bold-77" d="M 225 3500 
L 1313 3500 
L 1900 1088 
L 2491 3500 
L 3425 3500 
L 4013 1113 
L 4603 3500 
L 5691 3500 
L 4769 0 
L 3547 0 
L 2956 2406 
L 2369 0 
L 1147 0 
L 225 3500 
z
" transform="scale(0.015625)"/>
       <path id="DejaVuSans-Bold-61" d="M 2106 1575 
Q 1756 1575 1579 1456 
Q 1403 1338 1403 1106 
Q 1403 894 1545 773 
Q 1688 653 1941 653 
Q 2256 653 2472 879 
Q 2688 1106 2688 1447 
L 2688 1575 
L 2106 1575 
z
M 3816 1997 
L 3816 0 
L 2688 0 
L 2688 519 
Q 2463 200 2181 54 
Q 1900 -91 1497 -91 
Q 953 -91 614 226 
Q 275 544 275 1050 
Q 275 1666 698 1953 
Q 1122 2241 2028 2241 
L 2688 2241 
L 2688 2328 
Q 2688 2594 2478 2717 
Q 2269 2841 1825 2841 
Q 1466 2841 1156 2769 
Q 847 2697 581 2553 
L 581 3406 
Q 941 3494 1303 3539 
Q 1666 3584 2028 3584 
Q 2975 3584 3395 3211 
Q 3816 2838 3816 1997 
z
" transform="scale(0.015625)"/>
       <path id="DejaVuSans-Bold-62" d="M 2400 722 
Q 2759 722 2948 984 
Q 3138 1247 3138 1747 
Q 3138 2247 2948 2509 
Q 2759 2772 2400 2772 
Q 2041 2772 1848 2508 
Q 1656 2244 1656 1747 
Q 1656 1250 1848 986 
Q 2041 722 2400 722 
z
M 1656 2988 
Q 1888 3294 2169 3439 
Q 2450 3584 2816 3584 
Q 3463 3584 3878 3070 
Q 4294 2556 4294 1747 
Q 4294 938 3878 423 
Q 3463 -91 2816 -91 
Q 2450 -91 2169 54 
Q 1888 200 1656 506 
L 1656 0 
L 538 0 
L 538 4863 
L 1656 4863 
L 1656 2988 
z
" transform="scale(0.015625)"/>
       <path id="DejaVuSans-Bold-6c" d="M 538 4863 
L 1656 4863 
L 1656 0 
L 538 0 
L 538 4863 
z
" transform="scale(0.015625)"/>
       <path id="DejaVuSans-Bold-20" transform="scale(0.015625)"/>
       <path id="DejaVuSans-Bold-72" d="M 3138 2547 
Q 2991 2616 2845 2648 
Q 2700 2681 2553 2681 
Q 2122 2681 1889 2404 
Q 1656 2128 1656 1613 
L 1656 0 
L 538 0 
L 538 3500 
L 1656 3500 
L 1656 2925 
Q 1872 3269 2151 3426 
Q 2431 3584 2822 3584 
Q 2878 3584 2943 3579 
Q 3009 3575 3134 3559 
L 3138 2547 
z
" transform="scale(0.015625)"/>
       <path id="DejaVuSans-Bold-67" d="M 2919 594 
Q 2688 288 2409 144 
Q 2131 0 1766 0 
Q 1125 0 706 504 
Q 288 1009 288 1791 
Q 288 2575 706 3076 
Q 1125 3578 1766 3578 
Q 2131 3578 2409 3434 
Q 2688 3291 2919 2981 
L 2919 3500 
L 4044 3500 
L 4044 353 
Q 4044 -491 3511 -936 
Q 2978 -1381 1966 -1381 
Q 1638 -1381 1331 -1331 
Q 1025 -1281 716 -1178 
L 716 -306 
Q 1009 -475 1290 -558 
Q 1572 -641 1856 -641 
Q 2406 -641 2662 -400 
Q 2919 -159 2919 353 
L 2919 594 
z
M 2181 2772 
Q 1834 2772 1640 2515 
Q 1447 2259 1447 1791 
Q 1447 1309 1634 1061 
Q 1822 813 2181 813 
Q 2531 813 2725 1069 
Q 2919 1325 2919 1791 
Q 2919 2259 2725 2515 
Q 2531 2772 2181 2772 
z
" transform="scale(0.015625)"/>
       <path id="DejaVuSans-Bold-79" d="M 78 3500 
L 1197 3500 
L 2138 1125 
L 2938 3500 
L 4056 3500 
L 2584 -331 
Q 2363 -916 2067 -1148 
Q 1772 -1381 1288 -1381 
L 641 -1381 
L 641 -647 
L 991 -647 
Q 1275 -647 1404 -556 
Q 1534 -466 1606 -231 
L 1638 -134 
L 78 3500 
z
" transform="scale(0.015625)"/>
       <path id="DejaVuSans-Bold-63" d="M 3366 3391 
L 3366 2478 
Q 3138 2634 2908 2709 
Q 2678 2784 2431 2784 
Q 1963 2784 1702 2511 
Q 1441 2238 1441 1747 
Q 1441 1256 1702 982 
Q 1963 709 2431 709 
Q 2694 709 2930 787 
Q 3166 866 3366 1019 
L 3366 103 
Q 3103 6 2833 -42 
Q 2563 -91 2291 -91 
Q 1344 -91 809 395 
Q 275 881 275 1747 
Q 275 2613 809 3098 
Q 1344 3584 2291 3584 
Q 2566 3584 2833 3536 
Q 3100 3488 3366 3391 
z
" transform="scale(0.015625)"/>
       <path id="DejaVuSans-Bold-6f" d="M 2203 2784 
Q 1831 2784 1636 2517 
Q 1441 2250 1441 1747 
Q 1441 1244 1636 976 
Q 1831 709 2203 709 
Q 2569 709 2762 976 
Q 2956 1244 2956 1747 
Q 2956 2250 2762 2517 
Q 2569 2784 2203 2784 
z
M 2203 3584 
Q 3106 3584 3614 3096 
Q 4122 2609 4122 1747 
Q 4122 884 3614 396 
Q 3106 -91 2203 -91 
Q 1297 -91 786 396 
Q 275 884 275 1747 
Q 275 2609 786 3096 
Q 1297 3584 2203 3584 
z
" transform="scale(0.015625)"/>
       <path id="DejaVuSans-Bold-73" d="M 3272 3391 
L 3272 2541 
Q 2913 2691 2578 2766 
Q 2244 2841 1947 2841 
Q 1628 2841 1473 2761 
Q 1319 2681 1319 2516 
Q 1319 2381 1436 2309 
Q 1553 2238 1856 2203 
L 2053 2175 
Q 2913 2066 3209 1816 
Q 3506 1566 3506 1031 
Q 3506 472 3093 190 
Q 2681 -91 1863 -91 
Q 1516 -91 1145 -36 
Q 775 19 384 128 
L 384 978 
Q 719 816 1070 734 
Q 1422 653 1784 653 
Q 2113 653 2278 743 
Q 2444 834 2444 1013 
Q 2444 1163 2330 1236 
Q 2216 1309 1875 1350 
L 1678 1375 
Q 931 1469 631 1722 
Q 331 1975 331 2491 
Q 331 3047 712 3315 
Q 1094 3584 1881 3584 
Q 2191 3584 2531 3537 
Q 2872 3491 3272 3391 
z
" transform="scale(0.015625)"/>
       <path id="DejaVuSans-Bold-75" d="M 500 1363 
L 500 3500 
L 1625 3500 
L 1625 3150 
Q 1625 2866 1622 2436 
Q 1619 2006 1619 1863 
Q 1619 1441 1641 1255 
Q 1663 1069 1716 984 
Q 1784 875 1895 815 
Q 2006 756 2150 756 
Q 2500 756 2700 1025 
Q 2900 1294 2900 1772 
L 2900 3500 
L 4019 3500 
L 4019 0 
L 2900 0 
L 2900 506 
Q 2647 200 2364 54 
Q 2081 -91 1741 -91 
Q 1134 -91 817 281 
Q 500 653 500 1363 
z
" transform="scale(0.015625)"/>
       <path id="DejaVuSans-Bold-6d" d="M 3781 2919 
Q 3994 3244 4286 3414 
Q 4578 3584 4928 3584 
Q 5531 3584 5847 3212 
Q 6163 2841 6163 2131 
L 6163 0 
L 5038 0 
L 5038 1825 
Q 5041 1866 5042 1909 
Q 5044 1953 5044 2034 
Q 5044 2406 4934 2573 
Q 4825 2741 4581 2741 
Q 4263 2741 4089 2478 
Q 3916 2216 3909 1719 
L 3909 0 
L 2784 0 
L 2784 1825 
Q 2784 2406 2684 2573 
Q 2584 2741 2328 2741 
Q 2006 2741 1831 2477 
Q 1656 2213 1656 1722 
L 1656 0 
L 531 0 
L 531 3500 
L 1656 3500 
L 1656 2988 
Q 1863 3284 2130 3434 
Q 2397 3584 2719 3584 
Q 3081 3584 3359 3409 
Q 3638 3234 3781 2919 
z
" transform="scale(0.015625)"/>
       <path id="DejaVuSans-Bold-70" d="M 1656 506 
L 1656 -1331 
L 538 -1331 
L 538 3500 
L 1656 3500 
L 1656 2988 
Q 1888 3294 2169 3439 
Q 2450 3584 2816 3584 
Q 3463 3584 3878 3070 
Q 4294 2556 4294 1747 
Q 4294 938 3878 423 
Q 3463 -91 2816 -91 
Q 2450 -91 2169 54 
Q 1888 200 1656 506 
z
M 2400 2772 
Q 2041 2772 1848 2508 
Q 1656 2244 1656 1747 
Q 1656 1250 1848 986 
Q 2041 722 2400 722 
Q 2759 722 2948 984 
Q 3138 1247 3138 1747 
Q 3138 2247 2948 2509 
Q 2759 2772 2400 2772 
z
" transform="scale(0.015625)"/>
       <path id="DejaVuSans-Bold-74" d="M 1759 4494 
L 1759 3500 
L 2913 3500 
L 2913 2700 
L 1759 2700 
L 1759 1216 
Q 1759 972 1856 886 
Q 1953 800 2241 800 
L 2816 800 
L 2816 0 
L 1856 0 
Q 1194 0 917 276 
Q 641 553 641 1216 
L 641 2700 
L 84 2700 
L 84 3500 
L 641 3500 
L 641 4494 
L 1759 4494 
z
" transform="scale(0.015625)"/>
       <path id="DejaVuSans-Bold-69" d="M 538 3500 
L 1656 3500 
L 1656 0 
L 538 0 
L 538 3500 
z
M 538 4863 
L 1656 4863 
L 1656 3950 
L 538 3950 
L 538 4863 
z
" transform="scale(0.015625)"/>
       <path id="DejaVuSans-Bold-28" d="M 2413 -844 
L 1484 -844 
Q 1006 -72 778 623 
Q 550 1319 550 2003 
Q 550 2688 779 3389 
Q 1009 4091 1484 4856 
L 2413 4856 
Q 2013 4116 1813 3408 
Q 1613 2700 1613 2009 
Q 1613 1319 1811 609 
Q 2009 -100 2413 -844 
z
" transform="scale(0.015625)"/>
       <path id="DejaVuSans-Bold-25" d="M 4959 1925 
Q 4738 1925 4616 1733 
Q 4494 1541 4494 1184 
Q 4494 825 4614 633 
Q 4734 441 4959 441 
Q 5184 441 5303 633 
Q 5422 825 5422 1184 
Q 5422 1541 5301 1733 
Q 5181 1925 4959 1925 
z
M 4959 2450 
Q 5541 2450 5875 2112 
Q 6209 1775 6209 1184 
Q 6209 594 5875 251 
Q 5541 -91 4959 -91 
Q 4378 -91 4042 251 
Q 3706 594 3706 1184 
Q 3706 1772 4042 2111 
Q 4378 2450 4959 2450 
z
M 2094 -91 
L 1403 -91 
L 4319 4750 
L 5013 4750 
L 2094 -91 
z
M 1453 4750 
Q 2034 4750 2367 4411 
Q 2700 4072 2700 3481 
Q 2700 2891 2367 2550 
Q 2034 2209 1453 2209 
Q 872 2209 539 2550 
Q 206 2891 206 3481 
Q 206 4072 539 4411 
Q 872 4750 1453 4750 
z
M 1453 4225 
Q 1228 4225 1106 4031 
Q 984 3838 984 3481 
Q 984 3122 1106 2926 
Q 1228 2731 1453 2731 
Q 1678 2731 1798 2926 
Q 1919 3122 1919 3481 
Q 1919 3838 1797 4031 
Q 1675 4225 1453 4225 
z
" transform="scale(0.015625)"/>
       <path id="DejaVuSans-Bold-29" d="M 513 -844 
Q 913 -100 1113 609 
Q 1313 1319 1313 2009 
Q 1313 2700 1113 3408 
Q 913 4116 513 4856 
L 1441 4856 
Q 1916 4091 2145 3389 
Q 2375 2688 2375 2003 
Q 2375 1319 2147 623 
Q 1919 -72 1441 -844 
L 513 -844 
z
" transform="scale(0.015625)"/>
      </defs>
      <use xlink:href="#DejaVuSans-Bold-52"/>
      <use xlink:href="#DejaVuSans-Bold-65" transform="translate(77.001953 0)"/>
      <use xlink:href="#DejaVuSans-Bold-6e" transform="translate(144.824219 0)"/>
      <use xlink:href="#DejaVuSans-Bold-65" transform="translate(216.015625 0)"/>
      <use xlink:href="#DejaVuSans-Bold-77" transform="translate(283.837891 0)"/>
      <use xlink:href="#DejaVuSans-Bold-61" transform="translate(376.220703 0)"/>
      <use xlink:href="#DejaVuSans-Bold-62" transform="translate(443.701172 0)"/>
      <use xlink:href="#DejaVuSans-Bold-6c" transform="translate(515.283203 0)"/>
      <use xlink:href="#DejaVuSans-Bold-65" transform="translate(549.560547 0)"/>
      <use xlink:href="#DejaVuSans-Bold-20" transform="translate(617.382812 0)"/>
      <use xlink:href="#DejaVuSans-Bold-65" transform="translate(652.197266 0)"/>
      <use xlink:href="#DejaVuSans-Bold-6e" transform="translate(720.019531 0)"/>
      <use xlink:href="#DejaVuSans-Bold-65" transform="translate(791.210938 0)"/>
      <use xlink:href="#DejaVuSans-Bold-72" transform="translate(859.033203 0)"/>
      <use xlink:href="#DejaVuSans-Bold-67" transform="translate(908.349609 0)"/>
      <use xlink:href="#DejaVuSans-Bold-79" transform="translate(979.931641 0)"/>
      <use xlink:href="#DejaVuSans-Bold-20" transform="translate(1045.117188 0)"/>
      <use xlink:href="#DejaVuSans-Bold-63" transform="translate(1079.931641 0)"/>
      <use xlink:href="#DejaVuSans-Bold-6f" transform="translate(1139.208984 0)"/>
      <use xlink:href="#DejaVuSans-Bold-6e" transform="translate(1207.910156 0)"/>
      <use xlink:href="#DejaVuSans-Bold-73" transform="translate(1279.101562 0)"/>
      <use xlink:href="#DejaVuSans-Bold-75" transform="translate(1338.623047 0)"/>
      <use xlink:href="#DejaVuSans-Bold-6d" transform="translate(1409.814453 0)"/>
      <use xlink:href="#DejaVuSans-Bold-70" transform="translate(1514.013672 0)"/>
      <use xlink:href="#DejaVuSans-Bold-74" transform="translate(1585.595703 0)"/>
      <use xlink:href="#DejaVuSans-Bold-69" transform="translate(1633.398438 0)"/>
      <use xlink:href="#DejaVuSans-Bold-6f" transform="translate(1667.675781 0)"/>
      <use xlink:href="#DejaVuSans-Bold-6e" transform="translate(1736.376953 0)"/>
      <use xlink:href="#DejaVuSans-Bold-20" transform="translate(1807.568359 0)"/>
      <use xlink:href="#DejaVuSans-Bold-28" transform="translate(1842.382812 0)"/>
      <use xlink:href="#DejaVuSans-Bold-25" transform="translate(1888.085938 0)"/>
      <use xlink:href="#DejaVuSans-Bold-29" transform="translate(1988.28125 0)"/>
     </g>
    </g>
   </g>
   <g id="matplotlib.axis_2">
    <g id="ytick_1">
     <g id="line2d_13">
      <path d="M 45.52375 445.759407 
L 985.064273 445.759407 
" clip-path="url(#p590f17849a)" style="fill: none; stroke: #b0b0b0; stroke-opacity: 0.3; stroke-width: 0.8; stroke-linecap: square"/>
     </g>
     <g id="line2d_14">
      <defs>
       <path id="mb1caa95084" d="M 0 0 
L -3.5 0 
" style="stroke: #000000; stroke-width: 0.8"/>
      </defs>
      <g>
       <use xlink:href="#mb1caa95084" x="45.52375" y="445.759407" style="stroke: #000000; stroke-width: 0.8"/>
      </g>
     </g>
     <g id="text_8">
      <!-- −2 -->
      <g transform="translate(23.781563 449.558626) scale(0.1 -0.1)">
       <defs>
        <path id="DejaVuSans-2212" d="M 678 2272 
L 4684 2272 
L 4684 1741 
L 678 1741 
L 678 2272 
z
" transform="scale(0.015625)"/>
       </defs>
       <use xlink:href="#DejaVuSans-2212"/>
       <use xlink:href="#DejaVuSans-32" transform="translate(83.789062 0)"/>
      </g>
     </g>
    </g>
    <g id="ytick_2">
     <g id="line2d_15">
      <path d="M 45.52375 362.468194 
L 985.064273 362.468194 
" clip-path="url(#p590f17849a)" style="fill: none; stroke: #b0b0b0; stroke-opacity: 0.3; stroke-width: 0.8; stroke-linecap: square"/>
     </g>
     <g id="line2d_16">
      <g>
       <use xlink:href="#mb1caa95084" x="45.52375" y="362.468194" style="stroke: #000000; stroke-width: 0.8"/>
      </g>
     </g>
     <g id="text_9">
      <!-- 0 -->
      <g transform="translate(32.16125 366.267413) scale(0.1 -0.1)">
       <use xlink:href="#DejaVuSans-30"/>
      </g>
     </g>
    </g>
    <g id="ytick_3">
     <g id="line2d_17">
      <path d="M 45.52375 279.176981 
L 985.064273 279.176981 
" clip-path="url(#p590f17849a)" style="fill: none; stroke: #b0b0b0; stroke-opacity: 0.3; stroke-width: 0.8; stroke-linecap: square"/>
     </g>
     <g id="line2d_18">
      <g>
       <use xlink:href="#mb1caa95084" x="45.52375" y="279.176981" style="stroke: #000000; stroke-width: 0.8"/>
      </g>
     </g>
     <g id="text_10">
      <!-- 2 -->
      <g transform="translate(32.16125 282.976199) scale(0.1 -0.1)">
       <use xlink:href="#DejaVuSans-32"/>
      </g>
     </g>
    </g>
    <g id="ytick_4">
     <g id="line2d_19">
      <path d="M 45.52375 195.885767 
L 985.064273 195.885767 
" clip-path="url(#p590f17849a)" style="fill: none; stroke: #b0b0b0; stroke-opacity: 0.3; stroke-width: 0.8; stroke-linecap: square"/>
     </g>
     <g id="line2d_20">
      <g>
       <use xlink:href="#mb1caa95084" x="45.52375" y="195.885767" style="stroke: #000000; stroke-width: 0.8"/>
      </g>
     </g>
     <g id="text_11">
      <!-- 4 -->
      <g transform="translate(32.16125 199.684986) scale(0.1 -0.1)">
       <use xlink:href="#DejaVuSans-34"/>
      </g>
     </g>
    </g>
    <g id="ytick_5">
     <g id="line2d_21">
      <path d="M 45.52375 112.594554 
L 985.064273 112.594554 
" clip-path="url(#p590f17849a)" style="fill: none; stroke: #b0b0b0; stroke-opacity: 0.3; stroke-width: 0.8; stroke-linecap: square"/>
     </g>
     <g id="line2d_22">
      <g>
       <use xlink:href="#mb1caa95084" x="45.52375" y="112.594554" style="stroke: #000000; stroke-width: 0.8"/>
      </g>
     </g>
     <g id="text_12">
      <!-- 6 -->
      <g transform="translate(32.16125 116.393773) scale(0.1 -0.1)">
       <use xlink:href="#DejaVuSans-36"/>
      </g>
     </g>
    </g>
    <g id="text_13">
     <!-- CO2 emissions per capita (metric tons) -->
     <g transform="translate(17.077969 426.420141) rotate(-90) scale(0.13 -0.13)">
      <defs>
       <path id="DejaVuSans-Bold-43" d="M 4288 256 
Q 3956 84 3597 -3 
Q 3238 -91 2847 -91 
Q 1681 -91 1000 561 
Q 319 1213 319 2328 
Q 319 3447 1000 4098 
Q 1681 4750 2847 4750 
Q 3238 4750 3597 4662 
Q 3956 4575 4288 4403 
L 4288 3438 
Q 3953 3666 3628 3772 
Q 3303 3878 2944 3878 
Q 2300 3878 1931 3465 
Q 1563 3053 1563 2328 
Q 1563 1606 1931 1193 
Q 2300 781 2944 781 
Q 3303 781 3628 887 
Q 3953 994 4288 1222 
L 4288 256 
z
" transform="scale(0.015625)"/>
       <path id="DejaVuSans-Bold-4f" d="M 2719 3878 
Q 2169 3878 1866 3472 
Q 1563 3066 1563 2328 
Q 1563 1594 1866 1187 
Q 2169 781 2719 781 
Q 3272 781 3575 1187 
Q 3878 1594 3878 2328 
Q 3878 3066 3575 3472 
Q 3272 3878 2719 3878 
z
M 2719 4750 
Q 3844 4750 4481 4106 
Q 5119 3463 5119 2328 
Q 5119 1197 4481 553 
Q 3844 -91 2719 -91 
Q 1597 -91 958 553 
Q 319 1197 319 2328 
Q 319 3463 958 4106 
Q 1597 4750 2719 4750 
z
" transform="scale(0.015625)"/>
       <path id="DejaVuSans-Bold-32" d="M 1844 884 
L 3897 884 
L 3897 0 
L 506 0 
L 506 884 
L 2209 2388 
Q 2438 2594 2547 2791 
Q 2656 2988 2656 3200 
Q 2656 3528 2436 3728 
Q 2216 3928 1850 3928 
Q 1569 3928 1234 3808 
Q 900 3688 519 3450 
L 519 4475 
Q 925 4609 1322 4679 
Q 1719 4750 2100 4750 
Q 2938 4750 3402 4381 
Q 3866 4013 3866 3353 
Q 3866 2972 3669 2642 
Q 3472 2313 2841 1759 
L 1844 884 
z
" transform="scale(0.015625)"/>
      </defs>
      <use xlink:href="#DejaVuSans-Bold-43"/>
      <use xlink:href="#DejaVuSans-Bold-4f" transform="translate(73.388672 0)"/>
      <use xlink:href="#DejaVuSans-Bold-32" transform="translate(158.398438 0)"/>
      <use xlink:href="#DejaVuSans-Bold-20" transform="translate(227.978516 0)"/>
      <use xlink:href="#DejaVuSans-Bold-65" transform="translate(262.792969 0)"/>
      <use xlink:href="#DejaVuSans-Bold-6d" transform="translate(330.615234 0)"/>
      <use xlink:href="#DejaVuSans-Bold-69" transform="translate(434.814453 0)"/>
      <use xlink:href="#DejaVuSans-Bold-73" transform="translate(469.091797 0)"/>
      <use xlink:href="#DejaVuSans-Bold-73" transform="translate(528.613281 0)"/>
      <use xlink:href="#DejaVuSans-Bold-69" transform="translate(588.134766 0)"/>
      <use xlink:href="#DejaVuSans-Bold-6f" transform="translate(622.412109 0)"/>
      <use xlink:href="#DejaVuSans-Bold-6e" transform="translate(691.113281 0)"/>
      <use xlink:href="#DejaVuSans-Bold-73" transform="translate(762.304688 0)"/>
      <use xlink:href="#DejaVuSans-Bold-20" transform="translate(821.826172 0)"/>
      <use xlink:href="#DejaVuSans-Bold-70" transform="translate(856.640625 0)"/>
      <use xlink:href="#DejaVuSans-Bold-65" transform="translate(928.222656 0)"/>
      <use xlink:href="#DejaVuSans-Bold-72" transform="translate(996.044922 0)"/>
      <use xlink:href="#DejaVuSans-Bold-20" transform="translate(1045.361328 0)"/>
      <use xlink:href="#DejaVuSans-Bold-63" transform="translate(1080.175781 0)"/>
      <use xlink:href="#DejaVuSans-Bold-61" transform="translate(1139.453125 0)"/>
      <use xlink:href="#DejaVuSans-Bold-70" transform="translate(1206.933594 0)"/>
      <use xlink:href="#DejaVuSans-Bold-69" transform="translate(1278.515625 0)"/>
      <use xlink:href="#DejaVuSans-Bold-74" transform="translate(1312.792969 0)"/>
      <use xlink:href="#DejaVuSans-Bold-61" transform="translate(1360.595703 0)"/>
      <use xlink:href="#DejaVuSans-Bold-20" transform="translate(1428.076172 0)"/>
      <use xlink:href="#DejaVuSans-Bold-28" transform="translate(1462.890625 0)"/>
      <use xlink:href="#DejaVuSans-Bold-6d" transform="translate(1508.59375 0)"/>
      <use xlink:href="#DejaVuSans-Bold-65" transform="translate(1612.792969 0)"/>
      <use xlink:href="#DejaVuSans-Bold-74" transform="translate(1680.615234 0)"/>
      <use xlink:href="#DejaVuSans-Bold-72" transform="translate(1728.417969 0)"/>
      <use xlink:href="#DejaVuSans-Bold-69" transform="translate(1777.734375 0)"/>
      <use xlink:href="#DejaVuSans-Bold-63" transform="translate(1812.011719 0)"/>
      <use xlink:href="#DejaVuSans-Bold-20" transform="translate(1871.289062 0)"/>
      <use xlink:href="#DejaVuSans-Bold-74" transform="translate(1906.103516 0)"/>
      <use xlink:href="#DejaVuSans-Bold-6f" transform="translate(1953.90625 0)"/>
      <use xlink:href="#DejaVuSans-Bold-6e" transform="translate(2022.607422 0)"/>
      <use xlink:href="#DejaVuSans-Bold-73" transform="translate(2093.798828 0)"/>
      <use xlink:href="#DejaVuSans-Bold-29" transform="translate(2153.320312 0)"/>
     </g>
    </g>
   </g>
   <g id="line2d_23"/>
   <g id="line2d_24">
    <path d="M 88.230137 145.084429 
L 96.85769 147.880383 
L 105.485243 150.676336 
L 114.112796 153.47229 
L 122.740349 156.268243 
L 131.367902 159.064196 
L 139.995455 161.86015 
L 148.623009 164.656103 
L 157.250562 167.452057 
L 165.878115 170.24801 
L 174.505668 173.043964 
L 183.133221 175.839917 
L 191.760774 178.635871 
L 200.388327 181.431824 
L 209.01588 184.227777 
L 217.643433 187.023731 
L 226.270986 189.819684 
L 234.898539 192.615638 
L 243.526092 195.411591 
L 252.153645 198.207545 
L 260.781198 201.003498 
L 269.408751 203.799452 
L 278.036304 206.595405 
L 286.663857 209.391359 
L 295.29141 212.187312 
L 303.918963 214.983265 
L 312.546516 217.779219 
L 321.174069 220.575172 
L 329.801622 223.371126 
L 338.429175 226.167079 
L 347.056728 228.963033 
L 355.684281 231.758986 
L 364.311834 234.55494 
L 372.939387 237.350893 
L 381.56694 240.146847 
L 390.194493 242.9428 
L 398.822046 245.738753 
L 407.449599 248.534707 
L 416.077152 251.33066 
L 424.704705 254.126614 
L 433.332258 256.922567 
L 441.959811 259.718521 
L 450.587364 262.514474 
L 459.214917 265.310428 
L 467.84247 268.106381 
L 476.470023 270.902334 
L 485.097576 273.698288 
L 493.725129 276.494241 
L 502.352682 279.290195 
L 510.980235 282.086148 
L 519.607788 284.882102 
L 528.235341 287.678055 
L 536.862894 290.474009 
L 545.490447 293.269962 
L 554.118 296.065916 
L 562.745553 298.861869 
L 571.373106 301.657822 
L 580.000659 304.453776 
L 588.628212 307.249729 
L 597.255765 310.045683 
L 605.883318 312.841636 
L 614.510871 315.63759 
L 623.138424 318.433543 
L 631.765977 321.229497 
L 640.39353 324.02545 
L 649.021083 326.821403 
L 657.648636 329.617357 
L 666.276189 332.41331 
L 674.903742 335.209264 
L 683.531295 338.005217 
L 692.158848 340.801171 
L 700.786401 343.597124 
L 709.413954 346.393078 
L 718.041507 349.189031 
L 726.66906 351.984985 
L 735.296613 354.780938 
L 743.924166 357.576891 
L 752.551719 360.372845 
L 761.179272 363.168798 
L 769.806825 365.964752 
L 778.434378 368.760705 
L 787.061931 371.556659 
L 795.689485 374.352612 
L 804.317038 377.148566 
L 812.944591 379.944519 
L 821.572144 382.740473 
L 830.199697 385.536426 
L 838.82725 388.332379 
L 847.454803 391.128333 
L 856.082356 393.924286 
L 864.709909 396.72024 
L 873.337462 399.516193 
L 881.965015 402.312147 
L 890.592568 405.1081 
L 899.220121 407.904054 
L 907.847674 410.700007 
L 916.475227 413.49596 
L 925.10278 416.291914 
L 933.730333 419.087867 
L 942.357886 421.883821 
" clip-path="url(#p590f17849a)" style="fill: none; stroke: #ff0000; stroke-width: 2.5; stroke-linecap: square"/>
   </g>
   <g id="patch_3">
    <path d="M 45.52375 527.344125 
L 45.52375 39.624125 
" style="fill: none; stroke: #000000; stroke-width: 0.8; stroke-linejoin: miter; stroke-linecap: square"/>
   </g>
   <g id="patch_4">
    <path d="M 985.064273 527.344125 
L 985.064273 39.624125 
" style="fill: none; stroke: #000000; stroke-width: 0.8; stroke-linejoin: miter; stroke-linecap: square"/>
   </g>
   <g id="patch_5">
    <path d="M 45.52375 527.344125 
L 985.064273 527.344125 
" style="fill: none; stroke: #000000; stroke-width: 0.8; stroke-linejoin: miter; stroke-linecap: square"/>
   </g>
   <g id="patch_6">
    <path d="M 45.52375 39.624125 
L 985.064273 39.624125 
" style="fill: none; stroke: #000000; stroke-width: 0.8; stroke-linejoin: miter; stroke-linecap: square"/>
   </g>
   <g id="text_14">
    <!-- Main Correlation Analysis -->
    <g transform="translate(414.268699 17.837812) scale(0.14 -0.14)">
     <defs>
      <path id="DejaVuSans-Bold-4d" d="M 588 4666 
L 2119 4666 
L 3181 2169 
L 4250 4666 
L 5778 4666 
L 5778 0 
L 4641 0 
L 4641 3413 
L 3566 897 
L 2803 897 
L 1728 3413 
L 1728 0 
L 588 0 
L 588 4666 
z
" transform="scale(0.015625)"/>
      <path id="DejaVuSans-Bold-41" d="M 3419 850 
L 1538 850 
L 1241 0 
L 31 0 
L 1759 4666 
L 3194 4666 
L 4922 0 
L 3713 0 
L 3419 850 
z
M 1838 1716 
L 3116 1716 
L 2478 3572 
L 1838 1716 
z
" transform="scale(0.015625)"/>
     </defs>
     <use xlink:href="#DejaVuSans-Bold-4d"/>
     <use xlink:href="#DejaVuSans-Bold-61" transform="translate(99.511719 0)"/>
     <use xlink:href="#DejaVuSans-Bold-69" transform="translate(166.992188 0)"/>
     <use xlink:href="#DejaVuSans-Bold-6e" transform="translate(201.269531 0)"/>
     <use xlink:href="#DejaVuSans-Bold-20" transform="translate(272.460938 0)"/>
     <use xlink:href="#DejaVuSans-Bold-43" transform="translate(307.275391 0)"/>
     <use xlink:href="#DejaVuSans-Bold-6f" transform="translate(380.664062 0)"/>
     <use xlink:href="#DejaVuSans-Bold-72" transform="translate(449.365234 0)"/>
     <use xlink:href="#DejaVuSans-Bold-72" transform="translate(498.681641 0)"/>
     <use xlink:href="#DejaVuSans-Bold-65" transform="translate(547.998047 0)"/>
     <use xlink:href="#DejaVuSans-Bold-6c" transform="translate(615.820312 0)"/>
     <use xlink:href="#DejaVuSans-Bold-61" transform="translate(650.097656 0)"/>
     <use xlink:href="#DejaVuSans-Bold-74" transform="translate(717.578125 0)"/>
     <use xlink:href="#DejaVuSans-Bold-69" transform="translate(765.380859 0)"/>
     <use xlink:href="#DejaVuSans-Bold-6f" transform="translate(799.658203 0)"/>
     <use xlink:href="#DejaVuSans-Bold-6e" transform="translate(868.359375 0)"/>
     <use xlink:href="#DejaVuSans-Bold-20" transform="translate(939.550781 0)"/>
     <use xlink:href="#DejaVuSans-Bold-41" transform="translate(974.365234 0)"/>
     <use xlink:href="#DejaVuSans-Bold-6e" transform="translate(1051.757812 0)"/>
     <use xlink:href="#DejaVuSans-Bold-61" transform="translate(1122.949219 0)"/>
     <use xlink:href="#DejaVuSans-Bold-6c" transform="translate(1190.429688 0)"/>
     <use xlink:href="#DejaVuSans-Bold-79" transform="translate(1224.707031 0)"/>
     <use xlink:href="#DejaVuSans-Bold-73" transform="translate(1289.892578 0)"/>
     <use xlink:href="#DejaVuSans-Bold-69" transform="translate(1349.414062 0)"/>
     <use xlink:href="#DejaVuSans-Bold-73" transform="translate(1383.691406 0)"/>
    </g>
    <!-- Pearson r=-0.2198 (p=0.0761), Spearman rho=-0.3716 (p=0.0021) -->
    <g transform="translate(251.629168 33.624125) scale(0.14 -0.14)">
     <defs>
      <path id="DejaVuSans-Bold-50" d="M 588 4666 
L 2584 4666 
Q 3475 4666 3951 4270 
Q 4428 3875 4428 3144 
Q 4428 2409 3951 2014 
Q 3475 1619 2584 1619 
L 1791 1619 
L 1791 0 
L 588 0 
L 588 4666 
z
M 1791 3794 
L 1791 2491 
L 2456 2491 
Q 2806 2491 2997 2661 
Q 3188 2831 3188 3144 
Q 3188 3456 2997 3625 
Q 2806 3794 2456 3794 
L 1791 3794 
z
" transform="scale(0.015625)"/>
      <path id="DejaVuSans-Bold-3d" d="M 678 3084 
L 4684 3084 
L 4684 2350 
L 678 2350 
L 678 3084 
z
M 678 1663 
L 4684 1663 
L 4684 922 
L 678 922 
L 678 1663 
z
" transform="scale(0.015625)"/>
      <path id="DejaVuSans-Bold-2d" d="M 347 2297 
L 2309 2297 
L 2309 1388 
L 347 1388 
L 347 2297 
z
" transform="scale(0.015625)"/>
      <path id="DejaVuSans-Bold-30" d="M 2944 2338 
Q 2944 3213 2780 3570 
Q 2616 3928 2228 3928 
Q 1841 3928 1675 3570 
Q 1509 3213 1509 2338 
Q 1509 1453 1675 1090 
Q 1841 728 2228 728 
Q 2613 728 2778 1090 
Q 2944 1453 2944 2338 
z
M 4147 2328 
Q 4147 1169 3647 539 
Q 3147 -91 2228 -91 
Q 1306 -91 806 539 
Q 306 1169 306 2328 
Q 306 3491 806 4120 
Q 1306 4750 2228 4750 
Q 3147 4750 3647 4120 
Q 4147 3491 4147 2328 
z
" transform="scale(0.015625)"/>
      <path id="DejaVuSans-Bold-2e" d="M 653 1209 
L 1778 1209 
L 1778 0 
L 653 0 
L 653 1209 
z
" transform="scale(0.015625)"/>
      <path id="DejaVuSans-Bold-31" d="M 750 831 
L 1813 831 
L 1813 3847 
L 722 3622 
L 722 4441 
L 1806 4666 
L 2950 4666 
L 2950 831 
L 4013 831 
L 4013 0 
L 750 0 
L 750 831 
z
" transform="scale(0.015625)"/>
      <path id="DejaVuSans-Bold-39" d="M 641 103 
L 641 966 
Q 928 831 1190 764 
Q 1453 697 1709 697 
Q 2247 697 2547 995 
Q 2847 1294 2900 1881 
Q 2688 1725 2447 1647 
Q 2206 1569 1925 1569 
Q 1209 1569 770 1986 
Q 331 2403 331 3084 
Q 331 3838 820 4291 
Q 1309 4744 2131 4744 
Q 3044 4744 3544 4128 
Q 4044 3513 4044 2388 
Q 4044 1231 3459 570 
Q 2875 -91 1856 -91 
Q 1528 -91 1228 -42 
Q 928 6 641 103 
z
M 2125 2350 
Q 2441 2350 2600 2554 
Q 2759 2759 2759 3169 
Q 2759 3575 2600 3781 
Q 2441 3988 2125 3988 
Q 1809 3988 1650 3781 
Q 1491 3575 1491 3169 
Q 1491 2759 1650 2554 
Q 1809 2350 2125 2350 
z
" transform="scale(0.015625)"/>
      <path id="DejaVuSans-Bold-38" d="M 2228 2088 
Q 1891 2088 1709 1903 
Q 1528 1719 1528 1375 
Q 1528 1031 1709 848 
Q 1891 666 2228 666 
Q 2563 666 2741 848 
Q 2919 1031 2919 1375 
Q 2919 1722 2741 1905 
Q 2563 2088 2228 2088 
z
M 1350 2484 
Q 925 2613 709 2878 
Q 494 3144 494 3541 
Q 494 4131 934 4440 
Q 1375 4750 2228 4750 
Q 3075 4750 3515 4442 
Q 3956 4134 3956 3541 
Q 3956 3144 3739 2878 
Q 3522 2613 3097 2484 
Q 3572 2353 3814 2058 
Q 4056 1763 4056 1313 
Q 4056 619 3595 264 
Q 3134 -91 2228 -91 
Q 1319 -91 855 264 
Q 391 619 391 1313 
Q 391 1763 633 2058 
Q 875 2353 1350 2484 
z
M 1631 3419 
Q 1631 3141 1786 2991 
Q 1941 2841 2228 2841 
Q 2509 2841 2662 2991 
Q 2816 3141 2816 3419 
Q 2816 3697 2662 3845 
Q 2509 3994 2228 3994 
Q 1941 3994 1786 3844 
Q 1631 3694 1631 3419 
z
" transform="scale(0.015625)"/>
      <path id="DejaVuSans-Bold-37" d="M 428 4666 
L 3944 4666 
L 3944 3988 
L 2125 0 
L 953 0 
L 2675 3781 
L 428 3781 
L 428 4666 
z
" transform="scale(0.015625)"/>
      <path id="DejaVuSans-Bold-36" d="M 2316 2303 
Q 2000 2303 1842 2098 
Q 1684 1894 1684 1484 
Q 1684 1075 1842 870 
Q 2000 666 2316 666 
Q 2634 666 2792 870 
Q 2950 1075 2950 1484 
Q 2950 1894 2792 2098 
Q 2634 2303 2316 2303 
z
M 3803 4544 
L 3803 3681 
Q 3506 3822 3243 3889 
Q 2981 3956 2731 3956 
Q 2194 3956 1894 3657 
Q 1594 3359 1544 2772 
Q 1750 2925 1990 3001 
Q 2231 3078 2516 3078 
Q 3231 3078 3670 2659 
Q 4109 2241 4109 1563 
Q 4109 813 3618 361 
Q 3128 -91 2303 -91 
Q 1394 -91 895 523 
Q 397 1138 397 2266 
Q 397 3422 980 4083 
Q 1563 4744 2578 4744 
Q 2900 4744 3203 4694 
Q 3506 4644 3803 4544 
z
" transform="scale(0.015625)"/>
      <path id="DejaVuSans-Bold-2c" d="M 653 1209 
L 1778 1209 
L 1778 256 
L 1006 -909 
L 341 -909 
L 653 256 
L 653 1209 
z
" transform="scale(0.015625)"/>
      <path id="DejaVuSans-Bold-53" d="M 3834 4519 
L 3834 3531 
Q 3450 3703 3084 3790 
Q 2719 3878 2394 3878 
Q 1963 3878 1756 3759 
Q 1550 3641 1550 3391 
Q 1550 3203 1689 3098 
Q 1828 2994 2194 2919 
L 2706 2816 
Q 3484 2659 3812 2340 
Q 4141 2022 4141 1434 
Q 4141 663 3683 286 
Q 3225 -91 2284 -91 
Q 1841 -91 1394 -6 
Q 947 78 500 244 
L 500 1259 
Q 947 1022 1364 901 
Q 1781 781 2169 781 
Q 2563 781 2772 912 
Q 2981 1044 2981 1288 
Q 2981 1506 2839 1625 
Q 2697 1744 2272 1838 
L 1806 1941 
Q 1106 2091 782 2419 
Q 459 2747 459 3303 
Q 459 4000 909 4375 
Q 1359 4750 2203 4750 
Q 2588 4750 2994 4692 
Q 3400 4634 3834 4519 
z
" transform="scale(0.015625)"/>
      <path id="DejaVuSans-Bold-68" d="M 4056 2131 
L 4056 0 
L 2931 0 
L 2931 347 
L 2931 1625 
Q 2931 2084 2911 2256 
Q 2891 2428 2841 2509 
Q 2775 2619 2662 2680 
Q 2550 2741 2406 2741 
Q 2056 2741 1856 2470 
Q 1656 2200 1656 1722 
L 1656 0 
L 538 0 
L 538 4863 
L 1656 4863 
L 1656 2988 
Q 1909 3294 2193 3439 
Q 2478 3584 2822 3584 
Q 3428 3584 3742 3212 
Q 4056 2841 4056 2131 
z
" transform="scale(0.015625)"/>
      <path id="DejaVuSans-Bold-33" d="M 2981 2516 
Q 3453 2394 3698 2092 
Q 3944 1791 3944 1325 
Q 3944 631 3412 270 
Q 2881 -91 1863 -91 
Q 1503 -91 1142 -33 
Q 781 25 428 141 
L 428 1069 
Q 766 900 1098 814 
Q 1431 728 1753 728 
Q 2231 728 2486 893 
Q 2741 1059 2741 1369 
Q 2741 1688 2480 1852 
Q 2219 2016 1709 2016 
L 1228 2016 
L 1228 2791 
L 1734 2791 
Q 2188 2791 2409 2933 
Q 2631 3075 2631 3366 
Q 2631 3634 2415 3781 
Q 2200 3928 1806 3928 
Q 1516 3928 1219 3862 
Q 922 3797 628 3669 
L 628 4550 
Q 984 4650 1334 4700 
Q 1684 4750 2022 4750 
Q 2931 4750 3382 4451 
Q 3834 4153 3834 3553 
Q 3834 3144 3618 2883 
Q 3403 2622 2981 2516 
z
" transform="scale(0.015625)"/>
     </defs>
     <use xlink:href="#DejaVuSans-Bold-50"/>
     <use xlink:href="#DejaVuSans-Bold-65" transform="translate(73.291016 0)"/>
     <use xlink:href="#DejaVuSans-Bold-61" transform="translate(141.113281 0)"/>
     <use xlink:href="#DejaVuSans-Bold-72" transform="translate(208.59375 0)"/>
     <use xlink:href="#DejaVuSans-Bold-73" transform="translate(257.910156 0)"/>
     <use xlink:href="#DejaVuSans-Bold-6f" transform="translate(317.431641 0)"/>
     <use xlink:href="#DejaVuSans-Bold-6e" transform="translate(386.132812 0)"/>
     <use xlink:href="#DejaVuSans-Bold-20" transform="translate(457.324219 0)"/>
     <use xlink:href="#DejaVuSans-Bold-72" transform="translate(492.138672 0)"/>
     <use xlink:href="#DejaVuSans-Bold-3d" transform="translate(541.455078 0)"/>
     <use xlink:href="#DejaVuSans-Bold-2d" transform="translate(625.244141 0)"/>
     <use xlink:href="#DejaVuSans-Bold-30" transform="translate(666.748047 0)"/>
     <use xlink:href="#DejaVuSans-Bold-2e" transform="translate(736.328125 0)"/>
     <use xlink:href="#DejaVuSans-Bold-32" transform="translate(774.316406 0)"/>
     <use xlink:href="#DejaVuSans-Bold-31" transform="translate(843.896484 0)"/>
     <use xlink:href="#DejaVuSans-Bold-39" transform="translate(913.476562 0)"/>
     <use xlink:href="#DejaVuSans-Bold-38" transform="translate(983.056641 0)"/>
     <use xlink:href="#DejaVuSans-Bold-20" transform="translate(1052.636719 0)"/>
     <use xlink:href="#DejaVuSans-Bold-28" transform="translate(1087.451172 0)"/>
     <use xlink:href="#DejaVuSans-Bold-70" transform="translate(1133.154297 0)"/>
     <use xlink:href="#DejaVuSans-Bold-3d" transform="translate(1204.736328 0)"/>
     <use xlink:href="#DejaVuSans-Bold-30" transform="translate(1288.525391 0)"/>
     <use xlink:href="#DejaVuSans-Bold-2e" transform="translate(1358.105469 0)"/>
     <use xlink:href="#DejaVuSans-Bold-30" transform="translate(1396.09375 0)"/>
     <use xlink:href="#DejaVuSans-Bold-37" transform="translate(1465.673828 0)"/>
     <use xlink:href="#DejaVuSans-Bold-36" transform="translate(1535.253906 0)"/>
     <use xlink:href="#DejaVuSans-Bold-31" transform="translate(1604.833984 0)"/>
     <use xlink:href="#DejaVuSans-Bold-29" transform="translate(1674.414062 0)"/>
     <use xlink:href="#DejaVuSans-Bold-2c" transform="translate(1720.117188 0)"/>
     <use xlink:href="#DejaVuSans-Bold-20" transform="translate(1758.105469 0)"/>
     <use xlink:href="#DejaVuSans-Bold-53" transform="translate(1792.919922 0)"/>
     <use xlink:href="#DejaVuSans-Bold-70" transform="translate(1864.941406 0)"/>
     <use xlink:href="#DejaVuSans-Bold-65" transform="translate(1936.523438 0)"/>
     <use xlink:href="#DejaVuSans-Bold-61" transform="translate(2004.345703 0)"/>
     <use xlink:href="#DejaVuSans-Bold-72" transform="translate(2071.826172 0)"/>
     <use xlink:href="#DejaVuSans-Bold-6d" transform="translate(2121.142578 0)"/>
     <use xlink:href="#DejaVuSans-Bold-61" transform="translate(2225.341797 0)"/>
     <use xlink:href="#DejaVuSans-Bold-6e" transform="translate(2292.822266 0)"/>
     <use xlink:href="#DejaVuSans-Bold-20" transform="translate(2364.013672 0)"/>
     <use xlink:href="#DejaVuSans-Bold-72" transform="translate(2398.828125 0)"/>
     <use xlink:href="#DejaVuSans-Bold-68" transform="translate(2448.144531 0)"/>
     <use xlink:href="#DejaVuSans-Bold-6f" transform="translate(2519.335938 0)"/>
     <use xlink:href="#DejaVuSans-Bold-3d" transform="translate(2588.037109 0)"/>
     <use xlink:href="#DejaVuSans-Bold-2d" transform="translate(2671.826172 0)"/>
     <use xlink:href="#DejaVuSans-Bold-30" transform="translate(2713.330078 0)"/>
     <use xlink:href="#DejaVuSans-Bold-2e" transform="translate(2782.910156 0)"/>
     <use xlink:href="#DejaVuSans-Bold-33" transform="translate(2820.898438 0)"/>
     <use xlink:href="#DejaVuSans-Bold-37" transform="translate(2890.478516 0)"/>
     <use xlink:href="#DejaVuSans-Bold-31" transform="translate(2960.058594 0)"/>
     <use xlink:href="#DejaVuSans-Bold-36" transform="translate(3029.638672 0)"/>
     <use xlink:href="#DejaVuSans-Bold-20" transform="translate(3099.21875 0)"/>
     <use xlink:href="#DejaVuSans-Bold-28" transform="translate(3134.033203 0)"/>
     <use xlink:href="#DejaVuSans-Bold-70" transform="translate(3179.736328 0)"/>
     <use xlink:href="#DejaVuSans-Bold-3d" transform="translate(3251.318359 0)"/>
     <use xlink:href="#DejaVuSans-Bold-30" transform="translate(3335.107422 0)"/>
     <use xlink:href="#DejaVuSans-Bold-2e" transform="translate(3404.6875 0)"/>
     <use xlink:href="#DejaVuSans-Bold-30" transform="translate(3442.675781 0)"/>
     <use xlink:href="#DejaVuSans-Bold-30" transform="translate(3512.255859 0)"/>
     <use xlink:href="#DejaVuSans-Bold-32" transform="translate(3581.835938 0)"/>
     <use xlink:href="#DejaVuSans-Bold-31" transform="translate(3651.416016 0)"/>
     <use xlink:href="#DejaVuSans-Bold-29" transform="translate(3720.996094 0)"/>
    </g>
   </g>
   <g id="legend_1">
    <g id="patch_7">
     <path d="M 821.399742 96.861937 
L 977.364273 96.861937 
Q 979.564273 96.861937 979.564273 94.661937 
L 979.564273 47.324125 
Q 979.564273 45.124125 977.364273 45.124125 
L 821.399742 45.124125 
Q 819.199742 45.124125 819.199742 47.324125 
L 819.199742 94.661937 
Q 819.199742 96.861937 821.399742 96.861937 
z
" style="fill: #ffffff; opacity: 0.8; stroke: #cccccc; stroke-linejoin: miter"/>
    </g>
    <g id="line2d_25">
     <defs>
      <path id="me51a0c396a" d="M 0 5 
C 1.326016 5 2.597899 4.473168 3.535534 3.535534 
C 4.473168 2.597899 5 1.326016 5 0 
C 5 -1.326016 4.473168 -2.597899 3.535534 -3.535534 
C 2.597899 -4.473168 1.326016 -5 0 -5 
C -1.326016 -5 -2.597899 -4.473168 -3.535534 -3.535534 
C -4.473168 -2.597899 -5 -1.326016 -5 0 
C -5 1.326016 -4.473168 2.597899 -3.535534 3.535534 
C -2.597899 4.473168 -1.326016 5 0 5 
z
" style="stroke: #000000; stroke-opacity: 0.6; stroke-width: 0.8"/>
     </defs>
     <g>
      <use xlink:href="#me51a0c396a" x="834.599742" y="54.032406" style="fill: #1f77b4; fill-opacity: 0.6; stroke: #000000; stroke-opacity: 0.6; stroke-width: 0.8"/>
     </g>
    </g>
    <g id="text_15">
     <!-- Africa -->
     <g transform="translate(854.399742 57.882406) scale(0.11 -0.11)">
      <defs>
       <path id="DejaVuSans-41" d="M 2188 4044 
L 1331 1722 
L 3047 1722 
L 2188 4044 
z
M 1831 4666 
L 2547 4666 
L 4325 0 
L 3669 0 
L 3244 1197 
L 1141 1197 
L 716 0 
L 50 0 
L 1831 4666 
z
" transform="scale(0.015625)"/>
       <path id="DejaVuSans-66" d="M 2375 4863 
L 2375 4384 
L 1825 4384 
Q 1516 4384 1395 4259 
Q 1275 4134 1275 3809 
L 1275 3500 
L 2222 3500 
L 2222 3053 
L 1275 3053 
L 1275 0 
L 697 0 
L 697 3053 
L 147 3053 
L 147 3500 
L 697 3500 
L 697 3744 
Q 697 4328 969 4595 
Q 1241 4863 1831 4863 
L 2375 4863 
z
" transform="scale(0.015625)"/>
       <path id="DejaVuSans-72" d="M 2631 2963 
Q 2534 3019 2420 3045 
Q 2306 3072 2169 3072 
Q 1681 3072 1420 2755 
Q 1159 2438 1159 1844 
L 1159 0 
L 581 0 
L 581 3500 
L 1159 3500 
L 1159 2956 
Q 1341 3275 1631 3429 
Q 1922 3584 2338 3584 
Q 2397 3584 2469 3576 
Q 2541 3569 2628 3553 
L 2631 2963 
z
" transform="scale(0.015625)"/>
       <path id="DejaVuSans-69" d="M 603 3500 
L 1178 3500 
L 1178 0 
L 603 0 
L 603 3500 
z
M 603 4863 
L 1178 4863 
L 1178 4134 
L 603 4134 
L 603 4863 
z
" transform="scale(0.015625)"/>
       <path id="DejaVuSans-63" d="M 3122 3366 
L 3122 2828 
Q 2878 2963 2633 3030 
Q 2388 3097 2138 3097 
Q 1578 3097 1268 2742 
Q 959 2388 959 1747 
Q 959 1106 1268 751 
Q 1578 397 2138 397 
Q 2388 397 2633 464 
Q 2878 531 3122 666 
L 3122 134 
Q 2881 22 2623 -34 
Q 2366 -91 2075 -91 
Q 1284 -91 818 406 
Q 353 903 353 1747 
Q 353 2603 823 3093 
Q 1294 3584 2113 3584 
Q 2378 3584 2631 3529 
Q 2884 3475 3122 3366 
z
" transform="scale(0.015625)"/>
       <path id="DejaVuSans-61" d="M 2194 1759 
Q 1497 1759 1228 1600 
Q 959 1441 959 1056 
Q 959 750 1161 570 
Q 1363 391 1709 391 
Q 2188 391 2477 730 
Q 2766 1069 2766 1631 
L 2766 1759 
L 2194 1759 
z
M 3341 1997 
L 3341 0 
L 2766 0 
L 2766 531 
Q 2569 213 2275 61 
Q 1981 -91 1556 -91 
Q 1019 -91 701 211 
Q 384 513 384 1019 
Q 384 1609 779 1909 
Q 1175 2209 1959 2209 
L 2766 2209 
L 2766 2266 
Q 2766 2663 2505 2880 
Q 2244 3097 1772 3097 
Q 1472 3097 1187 3025 
Q 903 2953 641 2809 
L 641 3341 
Q 956 3463 1253 3523 
Q 1550 3584 1831 3584 
Q 2591 3584 2966 3190 
Q 3341 2797 3341 1997 
z
" transform="scale(0.015625)"/>
      </defs>
      <use xlink:href="#DejaVuSans-41"/>
      <use xlink:href="#DejaVuSans-66" transform="translate(64.783203 0)"/>
      <use xlink:href="#DejaVuSans-72" transform="translate(99.988281 0)"/>
      <use xlink:href="#DejaVuSans-69" transform="translate(141.101562 0)"/>
      <use xlink:href="#DejaVuSans-63" transform="translate(168.884766 0)"/>
      <use xlink:href="#DejaVuSans-61" transform="translate(223.865234 0)"/>
     </g>
    </g>
    <g id="line2d_26">
     <path d="M 823.599742 70.178344 
L 834.599742 70.178344 
L 845.599742 70.178344 
" style="fill: none; stroke: #ff0000; stroke-width: 2.5; stroke-linecap: square"/>
    </g>
    <g id="text_16">
     <!-- Linear fit (R²=0.0483) -->
     <g transform="translate(854.399742 74.028344) scale(0.11 -0.11)">
      <defs>
       <path id="DejaVuSans-4c" d="M 628 4666 
L 1259 4666 
L 1259 531 
L 3531 531 
L 3531 0 
L 628 0 
L 628 4666 
z
" transform="scale(0.015625)"/>
       <path id="DejaVuSans-6e" d="M 3513 2113 
L 3513 0 
L 2938 0 
L 2938 2094 
Q 2938 2591 2744 2837 
Q 2550 3084 2163 3084 
Q 1697 3084 1428 2787 
Q 1159 2491 1159 1978 
L 1159 0 
L 581 0 
L 581 3500 
L 1159 3500 
L 1159 2956 
Q 1366 3272 1645 3428 
Q 1925 3584 2291 3584 
Q 2894 3584 3203 3211 
Q 3513 2838 3513 2113 
z
" transform="scale(0.015625)"/>
       <path id="DejaVuSans-65" d="M 3597 1894 
L 3597 1613 
L 953 1613 
Q 991 1019 1311 708 
Q 1631 397 2203 397 
Q 2534 397 2845 478 
Q 3156 559 3463 722 
L 3463 178 
Q 3153 47 2828 -22 
Q 2503 -91 2169 -91 
Q 1331 -91 842 396 
Q 353 884 353 1716 
Q 353 2575 817 3079 
Q 1281 3584 2069 3584 
Q 2775 3584 3186 3129 
Q 3597 2675 3597 1894 
z
M 3022 2063 
Q 3016 2534 2758 2815 
Q 2500 3097 2075 3097 
Q 1594 3097 1305 2825 
Q 1016 2553 972 2059 
L 3022 2063 
z
" transform="scale(0.015625)"/>
       <path id="DejaVuSans-20" transform="scale(0.015625)"/>
       <path id="DejaVuSans-74" d="M 1172 4494 
L 1172 3500 
L 2356 3500 
L 2356 3053 
L 1172 3053 
L 1172 1153 
Q 1172 725 1289 603 
Q 1406 481 1766 481 
L 2356 481 
L 2356 0 
L 1766 0 
Q 1100 0 847 248 
Q 594 497 594 1153 
L 594 3053 
L 172 3053 
L 172 3500 
L 594 3500 
L 594 4494 
L 1172 4494 
z
" transform="scale(0.015625)"/>
       <path id="DejaVuSans-28" d="M 1984 4856 
Q 1566 4138 1362 3434 
Q 1159 2731 1159 2009 
Q 1159 1288 1364 580 
Q 1569 -128 1984 -844 
L 1484 -844 
Q 1016 -109 783 600 
Q 550 1309 550 2009 
Q 550 2706 781 3412 
Q 1013 4119 1484 4856 
L 1984 4856 
z
" transform="scale(0.015625)"/>
       <path id="DejaVuSans-52" d="M 2841 2188 
Q 3044 2119 3236 1894 
Q 3428 1669 3622 1275 
L 4263 0 
L 3584 0 
L 2988 1197 
Q 2756 1666 2539 1819 
Q 2322 1972 1947 1972 
L 1259 1972 
L 1259 0 
L 628 0 
L 628 4666 
L 2053 4666 
Q 2853 4666 3247 4331 
Q 3641 3997 3641 3322 
Q 3641 2881 3436 2590 
Q 3231 2300 2841 2188 
z
M 1259 4147 
L 1259 2491 
L 2053 2491 
Q 2509 2491 2742 2702 
Q 2975 2913 2975 3322 
Q 2975 3731 2742 3939 
Q 2509 4147 2053 4147 
L 1259 4147 
z
" transform="scale(0.015625)"/>
       <path id="DejaVuSans-b2" d="M 838 2444 
L 2163 2444 
L 2163 2088 
L 294 2088 
L 294 2431 
Q 400 2528 597 2703 
Q 1672 3656 1672 3950 
Q 1672 4156 1509 4282 
Q 1347 4409 1081 4409 
Q 919 4409 728 4354 
Q 538 4300 313 4191 
L 313 4575 
Q 553 4663 761 4706 
Q 969 4750 1147 4750 
Q 1600 4750 1872 4544 
Q 2144 4338 2144 4000 
Q 2144 3566 1109 2678 
Q 934 2528 838 2444 
z
" transform="scale(0.015625)"/>
       <path id="DejaVuSans-3d" d="M 678 2906 
L 4684 2906 
L 4684 2381 
L 678 2381 
L 678 2906 
z
M 678 1631 
L 4684 1631 
L 4684 1100 
L 678 1100 
L 678 1631 
z
" transform="scale(0.015625)"/>
       <path id="DejaVuSans-2e" d="M 684 794 
L 1344 794 
L 1344 0 
L 684 0 
L 684 794 
z
" transform="scale(0.015625)"/>
       <path id="DejaVuSans-33" d="M 2597 2516 
Q 3050 2419 3304 2112 
Q 3559 1806 3559 1356 
Q 3559 666 3084 287 
Q 2609 -91 1734 -91 
Q 1441 -91 1130 -33 
Q 819 25 488 141 
L 488 750 
Q 750 597 1062 519 
Q 1375 441 1716 441 
Q 2309 441 2620 675 
Q 2931 909 2931 1356 
Q 2931 1769 2642 2001 
Q 2353 2234 1838 2234 
L 1294 2234 
L 1294 2753 
L 1863 2753 
Q 2328 2753 2575 2939 
Q 2822 3125 2822 3475 
Q 2822 3834 2567 4026 
Q 2313 4219 1838 4219 
Q 1578 4219 1281 4162 
Q 984 4106 628 3988 
L 628 4550 
Q 988 4650 1302 4700 
Q 1616 4750 1894 4750 
Q 2613 4750 3031 4423 
Q 3450 4097 3450 3541 
Q 3450 3153 3228 2886 
Q 3006 2619 2597 2516 
z
" transform="scale(0.015625)"/>
       <path id="DejaVuSans-29" d="M 513 4856 
L 1013 4856 
Q 1481 4119 1714 3412 
Q 1947 2706 1947 2009 
Q 1947 1309 1714 600 
Q 1481 -109 1013 -844 
L 513 -844 
Q 928 -128 1133 580 
Q 1338 1288 1338 2009 
Q 1338 2731 1133 3434 
Q 928 4138 513 4856 
z
" transform="scale(0.015625)"/>
      </defs>
      <use xlink:href="#DejaVuSans-4c"/>
      <use xlink:href="#DejaVuSans-69" transform="translate(55.712891 0)"/>
      <use xlink:href="#DejaVuSans-6e" transform="translate(83.496094 0)"/>
      <use xlink:href="#DejaVuSans-65" transform="translate(146.875 0)"/>
      <use xlink:href="#DejaVuSans-61" transform="translate(208.398438 0)"/>
      <use xlink:href="#DejaVuSans-72" transform="translate(269.677734 0)"/>
      <use xlink:href="#DejaVuSans-20" transform="translate(310.791016 0)"/>
      <use xlink:href="#DejaVuSans-66" transform="translate(342.578125 0)"/>
      <use xlink:href="#DejaVuSans-69" transform="translate(377.783203 0)"/>
      <use xlink:href="#DejaVuSans-74" transform="translate(405.566406 0)"/>
      <use xlink:href="#DejaVuSans-20" transform="translate(444.775391 0)"/>
      <use xlink:href="#DejaVuSans-28" transform="translate(476.5625 0)"/>
      <use xlink:href="#DejaVuSans-52" transform="translate(515.576172 0)"/>
      <use xlink:href="#DejaVuSans-b2" transform="translate(585.058594 0)"/>
      <use xlink:href="#DejaVuSans-3d" transform="translate(625.146484 0)"/>
      <use xlink:href="#DejaVuSans-30" transform="translate(708.935547 0)"/>
      <use xlink:href="#DejaVuSans-2e" transform="translate(772.558594 0)"/>
      <use xlink:href="#DejaVuSans-30" transform="translate(804.345703 0)"/>
      <use xlink:href="#DejaVuSans-34" transform="translate(867.96875 0)"/>
      <use xlink:href="#DejaVuSans-38" transform="translate(931.591797 0)"/>
      <use xlink:href="#DejaVuSans-33" transform="translate(995.214844 0)"/>
      <use xlink:href="#DejaVuSans-29" transform="translate(1058.837891 0)"/>
     </g>
    </g>
    <g id="patch_8">
     <path d="M 823.599742 90.174281 
L 845.599742 90.174281 
L 845.599742 82.474281 
L 823.599742 82.474281 
z
" style="fill: #ff0000; fill-opacity: 0.2; stroke: #ff0000; stroke-opacity: 0.2; stroke-linejoin: miter"/>
    </g>
    <g id="text_17">
     <!-- 95% CI -->
     <g transform="translate(854.399742 90.174281) scale(0.11 -0.11)">
      <defs>
       <path id="DejaVuSans-39" d="M 703 97 
L 703 672 
Q 941 559 1184 500 
Q 1428 441 1663 441 
Q 2288 441 2617 861 
Q 2947 1281 2994 2138 
Q 2813 1869 2534 1725 
Q 2256 1581 1919 1581 
Q 1219 1581 811 2004 
Q 403 2428 403 3163 
Q 403 3881 828 4315 
Q 1253 4750 1959 4750 
Q 2769 4750 3195 4129 
Q 3622 3509 3622 2328 
Q 3622 1225 3098 567 
Q 2575 -91 1691 -91 
Q 1453 -91 1209 -44 
Q 966 3 703 97 
z
M 1959 2075 
Q 2384 2075 2632 2365 
Q 2881 2656 2881 3163 
Q 2881 3666 2632 3958 
Q 2384 4250 1959 4250 
Q 1534 4250 1286 3958 
Q 1038 3666 1038 3163 
Q 1038 2656 1286 2365 
Q 1534 2075 1959 2075 
z
" transform="scale(0.015625)"/>
       <path id="DejaVuSans-35" d="M 691 4666 
L 3169 4666 
L 3169 4134 
L 1269 4134 
L 1269 2991 
Q 1406 3038 1543 3061 
Q 1681 3084 1819 3084 
Q 2600 3084 3056 2656 
Q 3513 2228 3513 1497 
Q 3513 744 3044 326 
Q 2575 -91 1722 -91 
Q 1428 -91 1123 -41 
Q 819 9 494 109 
L 494 744 
Q 775 591 1075 516 
Q 1375 441 1709 441 
Q 2250 441 2565 725 
Q 2881 1009 2881 1497 
Q 2881 1984 2565 2268 
Q 2250 2553 1709 2553 
Q 1456 2553 1204 2497 
Q 953 2441 691 2322 
L 691 4666 
z
" transform="scale(0.015625)"/>
       <path id="DejaVuSans-25" d="M 4653 2053 
Q 4381 2053 4226 1822 
Q 4072 1591 4072 1178 
Q 4072 772 4226 539 
Q 4381 306 4653 306 
Q 4919 306 5073 539 
Q 5228 772 5228 1178 
Q 5228 1588 5073 1820 
Q 4919 2053 4653 2053 
z
M 4653 2450 
Q 5147 2450 5437 2106 
Q 5728 1763 5728 1178 
Q 5728 594 5436 251 
Q 5144 -91 4653 -91 
Q 4153 -91 3862 251 
Q 3572 594 3572 1178 
Q 3572 1766 3864 2108 
Q 4156 2450 4653 2450 
z
M 1428 4353 
Q 1159 4353 1004 4120 
Q 850 3888 850 3481 
Q 850 3069 1003 2837 
Q 1156 2606 1428 2606 
Q 1700 2606 1854 2837 
Q 2009 3069 2009 3481 
Q 2009 3884 1853 4118 
Q 1697 4353 1428 4353 
z
M 4250 4750 
L 4750 4750 
L 1831 -91 
L 1331 -91 
L 4250 4750 
z
M 1428 4750 
Q 1922 4750 2215 4408 
Q 2509 4066 2509 3481 
Q 2509 2891 2217 2550 
Q 1925 2209 1428 2209 
Q 931 2209 642 2551 
Q 353 2894 353 3481 
Q 353 4063 643 4406 
Q 934 4750 1428 4750 
z
" transform="scale(0.015625)"/>
       <path id="DejaVuSans-43" d="M 4122 4306 
L 4122 3641 
Q 3803 3938 3442 4084 
Q 3081 4231 2675 4231 
Q 1875 4231 1450 3742 
Q 1025 3253 1025 2328 
Q 1025 1406 1450 917 
Q 1875 428 2675 428 
Q 3081 428 3442 575 
Q 3803 722 4122 1019 
L 4122 359 
Q 3791 134 3420 21 
Q 3050 -91 2638 -91 
Q 1578 -91 968 557 
Q 359 1206 359 2328 
Q 359 3453 968 4101 
Q 1578 4750 2638 4750 
Q 3056 4750 3426 4639 
Q 3797 4528 4122 4306 
z
" transform="scale(0.015625)"/>
       <path id="DejaVuSans-49" d="M 628 4666 
L 1259 4666 
L 1259 0 
L 628 0 
L 628 4666 
z
" transform="scale(0.015625)"/>
      </defs>
      <use xlink:href="#DejaVuSans-39"/>
      <use xlink:href="#DejaVuSans-35" transform="translate(63.623047 0)"/>
      <use xlink:href="#DejaVuSans-25" transform="translate(127.246094 0)"/>
      <use xlink:href="#DejaVuSans-20" transform="translate(222.265625 0)"/>
      <use xlink:href="#DejaVuSans-43" transform="translate(254.052734 0)"/>
      <use xlink:href="#DejaVuSans-49" transform="translate(323.876953 0)"/>
     </g>
    </g>
   </g>
  </g>
 </g>
 <defs>
  <clipPath id="p590f17849a">
   <rect x="45.52375" y="39.624125" width="939.540523" height="487.72"/>
  </clipPath>
 </defs>
</svg>
